<?xml version="1.0" encoding="UTF-8" standalone="no"?><!DOCTYPE svg PUBLIC "-//W3C//DTD SVG 1.1//EN" "http://www.w3.org/Graphics/SVG/1.1/DTD/svg11.dtd"><!-- Generated by graphviz version 2.40.1 (20161225.0304)
 --><!-- Title: %0 Pages: 1 --><svg xmlns="http://www.w3.org/2000/svg" xmlns:xlink="http://www.w3.org/1999/xlink" width="649pt" height="476pt" viewBox="0.00 0.00 649.31 476.00">
<g id="graph0" class="graph" transform="scale(1 1) rotate(0) translate(4 472)">
<title>%0</title>
<polygon fill="#ffffff" stroke="transparent" points="-4,4 -4,-472 645.3125,-472 645.3125,4 -4,4"/>
<!-- root -->
<g id="node1" class="node">
<title>root</title>
<polygon fill="none" stroke="#000000" points="321.3013,-468 128.4821,-468 128.4821,-432 321.3013,-432 321.3013,-468"/>
<text text-anchor="middle" x="224.8917" y="-445.8" font-family="Times,serif" font-size="14.00" fill="#000000">convert CppUnit to GoogleTest</text>
</g>
<!-- parse_cppunit -->
<g id="node2" class="node">
<title>parse_cppunit</title>
<polygon fill="none" stroke="#000000" points="207.536,-396 82.2474,-396 82.2474,-360 207.536,-360 207.536,-396"/>
<text text-anchor="middle" x="144.8917" y="-373.8" font-family="Times,serif" font-size="14.00" fill="#000000">parse CppUnit tests</text>
</g>
<!-- root&#45;&gt;parse_cppunit -->
<g id="edge1" class="edge">
<title>root-&gt;parse_cppunit</title>
<path fill="none" stroke="#000000" d="M204.7043,-431.8314C195.0403,-423.1337 183.3121,-412.5783 172.8101,-403.1265"/>
<polygon fill="#000000" stroke="#000000" points="174.847,-400.251 165.0726,-396.1628 170.1642,-405.454 174.847,-400.251"/>
</g>
<!-- generate_gtest -->
<g id="node3" class="node">
<title>generate_gtest</title>
<polygon fill="none" stroke="#000000" points="386.001,-396 225.7824,-396 225.7824,-360 386.001,-360 386.001,-396"/>
<text text-anchor="middle" x="305.8917" y="-373.8" font-family="Times,serif" font-size="14.00" fill="#000000">generate GoogleTest tests</text>
</g>
<!-- root&#45;&gt;generate_gtest -->
<g id="edge2" class="edge">
<title>root-&gt;generate_gtest</title>
<path fill="none" stroke="#000000" d="M245.3314,-431.8314C255.2122,-423.0485 267.2241,-412.3712 277.9367,-402.8489"/>
<polygon fill="#000000" stroke="#000000" points="280.3097,-405.4224 285.4585,-396.1628 275.6591,-400.1906 280.3097,-405.4224"/>
</g>
<!-- parse_testsuite -->
<g id="node4" class="node">
<title>parse_testsuite</title>
<polygon fill="none" stroke="#000000" points="220.9759,-324 68.8075,-324 68.8075,-288 220.9759,-288 220.9759,-324"/>
<text text-anchor="middle" x="144.8917" y="-301.8" font-family="Times,serif" font-size="14.00" fill="#000000">parse CppUnit testsuites</text>
</g>
<!-- parse_cppunit&#45;&gt;parse_testsuite -->
<g id="edge3" class="edge">
<title>parse_cppunit-&gt;parse_testsuite</title>
<path fill="none" stroke="#000000" d="M144.8917,-359.8314C144.8917,-352.131 144.8917,-342.9743 144.8917,-334.4166"/>
<polygon fill="#000000" stroke="#000000" points="148.3918,-334.4132 144.8917,-324.4133 141.3918,-334.4133 148.3918,-334.4132"/>
</g>
<!-- parse_testcase -->
<g id="node5" class="node">
<title>parse_testcase</title>
<polygon fill="none" stroke="#000000" points="217.1796,-252 72.6038,-252 72.6038,-216 217.1796,-216 217.1796,-252"/>
<text text-anchor="middle" x="144.8917" y="-229.8" font-family="Times,serif" font-size="14.00" fill="#000000">parse CppUnit testcase</text>
</g>
<!-- parse_testsuite&#45;&gt;parse_testcase -->
<g id="edge4" class="edge">
<title>parse_testsuite-&gt;parse_testcase</title>
<path fill="none" stroke="#000000" d="M144.8917,-287.8314C144.8917,-280.131 144.8917,-270.9743 144.8917,-262.4166"/>
<polygon fill="#000000" stroke="#000000" points="148.3918,-262.4132 144.8917,-252.4133 141.3918,-262.4133 148.3918,-262.4132"/>
</g>
<!-- parse_testfixture -->
<g id="node6" class="node">
<title>parse_testfixture</title>
<polygon fill="none" stroke="#000000" points="392.4086,-252 235.3748,-252 235.3748,-216 392.4086,-216 392.4086,-252"/>
<text text-anchor="middle" x="313.8917" y="-229.8" font-family="Times,serif" font-size="14.00" fill="#000000">parse CppUnit testfixture</text>
</g>
<!-- parse_testsuite&#45;&gt;parse_testfixture -->
<g id="edge5" class="edge">
<title>parse_testsuite-&gt;parse_testfixture</title>
<path fill="none" stroke="#000000" d="M187.5375,-287.8314C210.2407,-278.159 238.3368,-266.1891 262.2659,-255.9944"/>
<polygon fill="#000000" stroke="#000000" points="263.7245,-259.1775 271.5525,-252.038 260.9808,-252.7376 263.7245,-259.1775"/>
</g>
<!-- parse_testsuite_keep -->
<g id="node7" class="node">
<title>parse_testsuite_keep</title>
<polygon fill="none" stroke="#000000" points="119.6753,-108 .1081,-108 .1081,-72 119.6753,-72 119.6753,-108"/>
<text text-anchor="middle" x="59.8917" y="-85.8" font-family="Times,serif" font-size="14.00" fill="#000000">parse code to keep</text>
</g>
<!-- parse_testsuite&#45;&gt;parse_testsuite_keep -->
<g id="edge6" class="edge">
<title>parse_testsuite-&gt;parse_testsuite_keep</title>
<path fill="none" stroke="#000000" d="M102.1079,-287.7759C87.3352,-279.1921 72.3762,-267.3937 63.8917,-252 40.8542,-210.2024 46.5922,-152.663 53.0852,-118.5987"/>
<polygon fill="#000000" stroke="#000000" points="56.5937,-118.9141 55.1844,-108.4135 49.7378,-117.5011 56.5937,-118.9141"/>
</g>
<!-- parse_test_method -->
<g id="node8" class="node">
<title>parse_test_method</title>
<polygon fill="none" stroke="#000000" points="378.5317,-180 211.2517,-180 211.2517,-144 378.5317,-144 378.5317,-180"/>
<text text-anchor="middle" x="294.8917" y="-157.8" font-family="Times,serif" font-size="14.00" fill="#000000">parse CppUnit testmethods</text>
</g>
<!-- parse_testcase&#45;&gt;parse_test_method -->
<g id="edge7" class="edge">
<title>parse_testcase-&gt;parse_test_method</title>
<path fill="none" stroke="#000000" d="M182.743,-215.8314C202.6263,-206.2874 227.1699,-194.5065 248.2222,-184.4013"/>
<polygon fill="#000000" stroke="#000000" points="249.8119,-187.5207 257.3126,-180.038 246.7827,-181.21 249.8119,-187.5207"/>
</g>
<!-- parse_testfixture_keep -->
<g id="node11" class="node">
<title>parse_testfixture_keep</title>
<polygon fill="none" stroke="#000000" points="192.6753,-180 73.1081,-180 73.1081,-144 192.6753,-144 192.6753,-180"/>
<text text-anchor="middle" x="132.8917" y="-157.8" font-family="Times,serif" font-size="14.00" fill="#000000">parse code to keep</text>
</g>
<!-- parse_testcase&#45;&gt;parse_testfixture_keep -->
<g id="edge8" class="edge">
<title>parse_testcase-&gt;parse_testfixture_keep</title>
<path fill="none" stroke="#000000" d="M141.8636,-215.8314C140.5802,-208.131 139.0541,-198.9743 137.6278,-190.4166"/>
<polygon fill="#000000" stroke="#000000" points="141.057,-189.7018 135.9606,-180.4133 134.1523,-190.8526 141.057,-189.7018"/>
</g>
<!-- parse_testfixture&#45;&gt;parse_test_method -->
<g id="edge9" class="edge">
<title>parse_testfixture-&gt;parse_test_method</title>
<path fill="none" stroke="#000000" d="M309.0972,-215.8314C307.0428,-208.0463 304.5957,-198.7729 302.3161,-190.1347"/>
<polygon fill="#000000" stroke="#000000" points="305.6865,-189.1892 299.7508,-180.4133 298.9182,-190.9753 305.6865,-189.1892"/>
</g>
<!-- parse_setup -->
<g id="node9" class="node">
<title>parse_setup</title>
<polygon fill="none" stroke="#000000" points="641.2334,-108 502.55,-108 502.55,-72 641.2334,-72 641.2334,-108"/>
<text text-anchor="middle" x="571.8917" y="-85.8" font-family="Times,serif" font-size="14.00" fill="#000000">parse testfixture setup</text>
</g>
<!-- parse_testfixture&#45;&gt;parse_setup -->
<g id="edge11" class="edge">
<title>parse_testfixture-&gt;parse_setup</title>
<path fill="none" stroke="#000000" d="M392.6858,-227.6585C458.6602,-220.5556 545.5254,-206.4003 567.8917,-180 582.1177,-163.2082 581.9135,-137.6851 578.8443,-118.1022"/>
<polygon fill="#000000" stroke="#000000" points="582.2705,-117.3833 576.979,-108.2045 575.3916,-118.6797 582.2705,-117.3833"/>
</g>
<!-- parse_teardown -->
<g id="node10" class="node">
<title>parse_teardown</title>
<polygon fill="none" stroke="#000000" points="558.7709,-180 397.0125,-180 397.0125,-144 558.7709,-144 558.7709,-180"/>
<text text-anchor="middle" x="477.8917" y="-157.8" font-family="Times,serif" font-size="14.00" fill="#000000">parse testfixture teardown</text>
</g>
<!-- parse_testfixture&#45;&gt;parse_teardown -->
<g id="edge12" class="edge">
<title>parse_testfixture-&gt;parse_teardown</title>
<path fill="none" stroke="#000000" d="M355.2758,-215.8314C377.2099,-206.2018 404.3309,-194.295 427.4848,-184.1299"/>
<polygon fill="#000000" stroke="#000000" points="429.0557,-187.2627 436.8052,-180.038 426.2417,-180.8532 429.0557,-187.2627"/>
</g>
<!-- parse_testfixture&#45;&gt;parse_testfixture_keep -->
<g id="edge10" class="edge">
<title>parse_testfixture-&gt;parse_testfixture_keep</title>
<path fill="none" stroke="#000000" d="M268.2178,-215.8314C243.7949,-206.1162 213.5451,-194.0831 187.8433,-183.8592"/>
<polygon fill="#000000" stroke="#000000" points="188.8227,-180.4821 178.2372,-180.038 186.2354,-186.9864 188.8227,-180.4821"/>
</g>
<!-- parse_assertion -->
<g id="node12" class="node">
<title>parse_assertion</title>
<polygon fill="none" stroke="#000000" points="394.8553,-36 238.9281,-36 238.9281,0 394.8553,0 394.8553,-36"/>
<text text-anchor="middle" x="316.8917" y="-13.8" font-family="Times,serif" font-size="14.00" fill="#000000">parse CppUnit assertions</text>
</g>
<!-- parse_testsuite_keep&#45;&gt;parse_assertion -->
<g id="edge13" class="edge">
<title>parse_testsuite_keep-&gt;parse_assertion</title>
<path fill="none" stroke="#000000" d="M119.8224,-73.2101C156.4675,-62.9437 203.6342,-49.7297 242.6354,-38.8033"/>
<polygon fill="#000000" stroke="#000000" points="243.6787,-42.1459 252.3637,-36.0779 241.7902,-35.4054 243.6787,-42.1459"/>
</g>
<!-- parse_test_method&#45;&gt;parse_assertion -->
<g id="edge15" class="edge">
<title>parse_test_method-&gt;parse_assertion</title>
<path fill="none" stroke="#000000" d="M316.6589,-143.8165C326.364,-134.2816 336.7514,-121.7355 341.8917,-108 349.5649,-87.4963 342.193,-63.5894 333.51,-45.5705"/>
<polygon fill="#000000" stroke="#000000" points="336.3645,-43.4745 328.6385,-36.2247 330.1572,-46.7102 336.3645,-43.4745"/>
</g>
<!-- parse_testmethod_keep -->
<g id="node13" class="node">
<title>parse_testmethod_keep</title>
<polygon fill="none" stroke="#000000" points="332.6753,-108 213.1081,-108 213.1081,-72 332.6753,-72 332.6753,-108"/>
<text text-anchor="middle" x="272.8917" y="-85.8" font-family="Times,serif" font-size="14.00" fill="#000000">parse code to keep</text>
</g>
<!-- parse_test_method&#45;&gt;parse_testmethod_keep -->
<g id="edge16" class="edge">
<title>parse_test_method-&gt;parse_testmethod_keep</title>
<path fill="none" stroke="#000000" d="M289.3402,-143.8314C286.9614,-136.0463 284.1279,-126.7729 281.4884,-118.1347"/>
<polygon fill="#000000" stroke="#000000" points="284.7875,-116.954 278.518,-108.4133 278.093,-118.9996 284.7875,-116.954"/>
</g>
<!-- parse_setup&#45;&gt;parse_assertion -->
<g id="edge18" class="edge">
<title>parse_setup-&gt;parse_assertion</title>
<path fill="none" stroke="#000000" d="M507.8736,-71.9243C472.2558,-61.8675 427.7642,-49.3052 390.6868,-38.8363"/>
<polygon fill="#000000" stroke="#000000" points="391.511,-35.4322 380.9362,-36.0831 389.6088,-42.1688 391.511,-35.4322"/>
</g>
<!-- parse_teardown&#45;&gt;parse_assertion -->
<g id="edge19" class="edge">
<title>parse_teardown-&gt;parse_assertion</title>
<path fill="none" stroke="#000000" d="M457.5009,-143.7623C428.9513,-118.2272 376.9666,-71.7316 344.8325,-42.9906"/>
<polygon fill="#000000" stroke="#000000" points="346.9039,-40.1475 337.1169,-36.0896 342.2372,-45.365 346.9039,-40.1475"/>
</g>
<!-- parse_testfixture_keep&#45;&gt;parse_assertion -->
<g id="edge14" class="edge">
<title>parse_testfixture_keep-&gt;parse_assertion</title>
<path fill="none" stroke="#000000" d="M143.7044,-143.7405C156.1609,-123.9643 178.2412,-92.5031 203.8917,-72 219.801,-59.2833 239.1969,-48.643 257.3978,-40.262"/>
<polygon fill="#000000" stroke="#000000" points="259.0686,-43.3495 266.782,-36.0863 256.2228,-36.9541 259.0686,-43.3495"/>
</g>
<!-- parse_testmethod_keep&#45;&gt;parse_assertion -->
<g id="edge17" class="edge">
<title>parse_testmethod_keep-&gt;parse_assertion</title>
<path fill="none" stroke="#000000" d="M283.9948,-71.8314C288.9591,-63.7079 294.9139,-53.9637 300.3845,-45.0118"/>
<polygon fill="#000000" stroke="#000000" points="303.4111,-46.7712 305.6391,-36.4133 297.4381,-43.121 303.4111,-46.7712"/>
</g>
</g>
</svg>